<svg width="5" height="5" viewBox="0 0 5 5" fill="none" xmlns="http://www.w3.org/2000/svg">
<path d="M5 2.5C5 1.81818 4.72728 1.18182 4.27274 0.727272C3.81819 0.272727 3.20455 0 2.5 0C1.81818 0 1.18181 0.272727 0.727262 0.727272C0.272716 1.18182 0 1.79545 0 2.5C0 3.18182 0.272716 3.81818 0.727262 4.27273C1.18181 4.72727 1.79545 5 2.5 5C3.18182 5 3.81819 4.72727 4.27274 4.27273C4.72728 3.81818 5 3.20455 5 2.5ZM4.54545 2.5C4.54545 3.06818 4.31819 3.56818 3.95455 3.95455C3.59091 4.31818 3.06818 4.54545 2.5 4.54545C1.93182 4.54545 1.43181 4.31818 1.04545 3.95455C0.681813 3.59091 0.454545 3.06818 0.454545 2.5C0.454545 1.93182 0.681813 1.43182 1.04545 1.04545C1.40909 0.681818 1.93182 0.454545 2.5 0.454545C3.06818 0.454545 3.56819 0.681818 3.95455 1.04545C4.31819 1.43182 4.54545 1.95455 4.54545 2.5ZM2.27273 1.13636V2.5C2.27273 2.59091 2.31818 2.65909 2.40909 2.70455L3.31818 3.15909C3.43181 3.20455 3.56819 3.15909 3.61364 3.06818C3.6591 2.95455 3.61364 2.81818 3.52273 2.77273L2.74999 2.38636V1.15909C2.74999 1.02273 2.65909 0.931818 2.52272 0.931818C2.36363 0.909091 2.27273 1.02273 2.27273 1.13636Z" fill="#918FBB"/>
</svg>
